<svg xmlns="http://www.w3.org/2000/svg" xmlns:xlink="http://www.w3.org/1999/xlink" width="23" height="36" viewBox="0 0 23 36">
  <defs>
    <style>
      .cls-1 {
        fill: #ff1a40;
        fill-rule: evenodd;
        filter: url(#filter);
      }
    </style>
    <filter id="filter" x="692" y="3776" width="23" height="36" filterUnits="userSpaceOnUse">
      <feFlood result="flood" flood-color="#383a57"/>
      <feComposite result="composite" operator="in" in2="SourceGraphic"/>
      <feBlend result="blend" in2="SourceGraphic"/>
    </filter>
  </defs>
  <path id="Icon" class="cls-1" d="M708.4,3809.32c0.29,0.11.576,0.16,0.49,0.48a0.724,0.724,0,0,1-.754.65,6.07,6.07,0,0,0-2.167.25,0.8,0.8,0,0,1-1.136-.57,1.66,1.66,0,0,1-1.009.37,0.8,0.8,0,0,0,.719.5,0.456,0.456,0,0,1,.371.39,0.425,0.425,0,0,1-.347.4,1.967,1.967,0,0,1-2.285-.34,1.8,1.8,0,0,0-.728-0.49,1.847,1.847,0,0,1-1.073-.97,1.448,1.448,0,0,1,.111-1.86,0.362,0.362,0,0,0,.08-0.47c-0.423.18-.47,0.95-1.021,0.81-0.526-.13-0.463-0.74-0.607-1.25a0.822,0.822,0,0,1-1.275.23,0.481,0.481,0,0,0-.625.15,0.772,0.772,0,0,1-1.295-.06,0.464,0.464,0,0,0-.755-0.07c-0.362.29-.737,0.46-1.042-0.09-0.125-.23-0.3-0.15-0.492-0.09a1.086,1.086,0,0,1-1.5-.98c-0.067-.62-0.231-1.31.526-1.69a0.316,0.316,0,0,0,.159-0.25c-0.231-.77.42-0.87,0.836-1.12a19.154,19.154,0,0,0,5.773-5.08,27.143,27.143,0,0,0,1.444-2.48,0.492,0.492,0,0,0,.086-0.35c-0.078-.19-0.248-0.07-0.385-0.04a1.07,1.07,0,0,1-.248.03c-0.253-.04-0.619.22-0.738-0.1s0.322-.31.481-0.49a6.08,6.08,0,0,0,.85-1.18,0.762,0.762,0,0,1,.094-0.23c0.956-.64.288-1.49,0.362-2.38-0.651.57-1.247,1.09-2,.53-0.556-.41-0.334-0.98-0.093-1.62a3.173,3.173,0,0,0-1,.74c-0.106.12-.22,0.22-0.376,0.09a0.237,0.237,0,0,1-.049-0.34c0.333-.43.034-1.04,0.441-1.47a2.8,2.8,0,0,1-1.451.61c-0.334.07-.636,0.11-0.471-0.39a0.406,0.406,0,0,0-.188-0.49c-0.4-.32-0.305-0.58.032-0.87,0.25-.22.507-0.47-0.068-0.64a0.313,0.313,0,0,1-.243-0.44c0.206-.42.464,0.08,0.717-0.03,0.117-.16-0.092-0.18-0.151-0.26a0.392,0.392,0,0,1-.118-0.51,0.35,0.35,0,0,1,.5-0.09,0.337,0.337,0,0,0,.5-0.03,0.452,0.452,0,0,0-.009-0.54,1.559,1.559,0,0,0-.175-0.34c-0.519-.52-0.511-0.88.157-1.34a1.143,1.143,0,0,0,.067-1.41c-0.25-.54-0.125-0.78.456-0.79a0.3,0.3,0,0,0,.286-0.27,6.638,6.638,0,0,0,.8-3.23,1.817,1.817,0,0,1,1.73-1.79c1.618-.14,2.144.2,2.58,1.75a9.54,9.54,0,0,1,.677,2.85c-0.011.39,0.3,0.43,0.588,0.37a2.169,2.169,0,0,0,1.362-.74c0.47-.6.937-1.2,1.4-1.81a14.713,14.713,0,0,1,2.317-2.16,0.75,0.75,0,0,1,1.145.18c0.282,0.27.024,0.45-.161,0.62-0.16.14-.358,0.23-0.074,0.47,0.232,0.2.1,0.43-.109,0.59a1.8,1.8,0,0,1-.78.4,0.852,0.852,0,0,0-.459.18,4.348,4.348,0,0,1-1.2,1.37,5.323,5.323,0,0,0,1.939-.68,15.188,15.188,0,0,1,3.029-1.22,2.174,2.174,0,0,1,1.874.31c0.32,0.17.373,0.37,0.1,0.76a1.356,1.356,0,0,1-1.4.63,2.786,2.786,0,0,0-.92.19c-0.166.04-.343,0.11-0.269,0.35a0.362,0.362,0,0,0,.423.29c0.144-.02.285-0.07,0.43-0.08,0.217-.01.45,0.01,0.464,0.3a0.36,0.36,0,0,1-.457.39c-0.456-.05-0.907-0.15-1.359-0.24a0.566,0.566,0,0,0-.421-0.06,25.829,25.829,0,0,1-4.167,1.5,1.372,1.372,0,0,0-1.121,1.42,1.251,1.251,0,0,1-.288.76,0.684,0.684,0,0,0,.088,1.1c0.211,0.2.47,0.39-.01,0.57-0.267.11-.1,0.3-0.057,0.43a12.579,12.579,0,0,0,1.012,2.13,6.606,6.606,0,0,1,.753,1.75,1.726,1.726,0,0,0,2.052.92c0.12-.04.23-0.11,0.351-0.14a0.5,0.5,0,0,1,.628.13,0.461,0.461,0,0,1-.237.59,7.983,7.983,0,0,0-1.621,1.26,0.768,0.768,0,0,0-.262.66c0.847,3.23,1.016,6.57,1.537,9.85,0.164,1.04.436,2.05,0.687,3.06a1.406,1.406,0,0,1-1.125,2.01C709.2,3809.15,708.848,3809.21,708.4,3809.32Z" transform="translate(-692 -3776)"/>
</svg>
