<svg xmlns="http://www.w3.org/2000/svg" xmlns:xlink="http://www.w3.org/1999/xlink" width="25" height="36" viewBox="0 0 25 36">
  <defs>
    <style>
      .cls-1 {
        fill: #ff1a40;
        fill-rule: evenodd;
        filter: url(#filter);
      }
    </style>
    <filter id="filter" x="607" y="3543" width="25" height="36" filterUnits="userSpaceOnUse">
      <feFlood result="flood" flood-color="#383a57"/>
      <feComposite result="composite" operator="in" in2="SourceGraphic"/>
      <feBlend result="blend" in2="SourceGraphic"/>
    </filter>
  </defs>
  <path id="Icon" class="cls-1" d="M630.082,3569.56c0.106,1.61-1.222,3.77-1.658,6.1-0.065.35-.883,0.08-0.929,0.45a15.309,15.309,0,0,0,.68,1.95c0.041,0.35-1.036.22-1.036,0.22l-0.166.27h-0.456l-0.29-.86s-2.156-.24-2.239.13-0.311.08-1.451,0.73-5.288.45-6.885,0.33c-0.755-.06-1.917-0.6-2.655-0.74a2.267,2.267,0,0,0-1.326.12,1.372,1.372,0,0,1-1.037-.65c-0.139-.32-1.142-2.47-0.58-2.69a11.524,11.524,0,0,0,2.612-1.22,3.1,3.1,0,0,0-1.065-2,7.812,7.812,0,0,1-1.609-1.09c-0.311-.21.052-0.67-0.021-1.13-0.078-.48-0.423-0.87-0.083-0.99,0.66-.24,2.107-0.77,4.292-1.53,0.762-.27,2.1-0.04,2.757-0.29a1.606,1.606,0,0,0,.831-1.22c0.413-.79-0.021-1.22.227-2.16,0.33-1.24,1.506-2.22,1.6-3.37a7.045,7.045,0,0,0-2.408-3.7,23.328,23.328,0,0,0-2.819-.14,24.927,24.927,0,0,1-2.7-.3,21.125,21.125,0,0,1-2.748-1.59,1.268,1.268,0,0,1-.207.93c-0.291.23-.2-0.89-0.4-0.61s-0.208.25-.354,0.46,0.208,1.1.052,1.24-0.22-.33-0.22-0.33-0.09.4-.215,0.23a3.989,3.989,0,0,1-.217-1s-0.208.74-.322,0.53a1.226,1.226,0,0,1,.137-0.73s0.973-1.78,1.511-1.79,2.967,1.39,4.833,1.43,1.783-.37,3.918-0.45a1.175,1.175,0,0,1-.373-1.1c0.022-.38-0.642-0.72-0.663-1.96s1.793-1.63,2.441-1.63a1.459,1.459,0,0,1,1.291.64,1.1,1.1,0,0,0,.892.59c0.213,0.04-.165.41-0.165,0.41l0.538,0.79a0.317,0.317,0,0,1-.2.45,8.755,8.755,0,0,1-1.054.3,0.456,0.456,0,0,0,.035.66c0.154,0.17.822,1.07,1.154,0.65a6.728,6.728,0,0,0,.535-1.21c0.152-.4.491-0.82,0.636-1.28a6.609,6.609,0,0,0,.322-2.2,12.2,12.2,0,0,0-1.41-3.64,2.391,2.391,0,0,0-1.48-.38,1.2,1.2,0,0,1-.979-0.17c-0.029-.24.912-0.18,1.031-0.26a1.134,1.134,0,0,0-.314-0.6,0.855,0.855,0,0,1-.579-0.05c-0.053-.15.4-0.27,0.4-0.27a1.788,1.788,0,0,1-.531-0.81c0.052-.23.855,0.82,1.183,0.9a3.1,3.1,0,0,1,1.751.69,14.077,14.077,0,0,1,2.448,4.33c0.035,0.39-.116,1.62-0.261,3-0.15,1.43-.766,2.36-0.747,3.03a2.533,2.533,0,0,0,.478.98c0.352,0.63-.374,1-0.435,4.01a21.763,21.763,0,0,0,.333,3.33,2.308,2.308,0,0,1,1.388-1.03c0.683,0.02.849-.34,1.906-1.03s0.747-1.67,1.039-2.23,1.016-2.16,1.575-1.83a6.984,6.984,0,0,1,2.344,4.44c0.206,2.2-.89,2.1-0.788,3.31S629.98,3567.94,630.082,3569.56Z" transform="translate(-607 -3543)"/>
</svg>
