<svg 
 xmlns="http://www.w3.org/2000/svg"
 xmlns:xlink="http://www.w3.org/1999/xlink"
 width="32px" height="36px">
<defs>
<filter id="Filter_0">
    <feFlood flood-color="rgb(56, 58, 87)" flood-opacity="1" result="floodOut" />
    <feComposite operator="atop" in="floodOut" in2="SourceGraphic" result="compOut" />
    <feBlend mode="normal" in="compOut" in2="SourceGraphic" />
</filter>

</defs>
<g filter="url(#Filter_0)">
<path fill-rule="evenodd"  fill="rgb(255, 26, 64)"
 d="M30.358,19.794 C30.358,19.794 30.357,20.907 30.310,21.489 C30.262,22.072 20.602,28.870 20.602,28.870 C20.602,28.870 21.421,31.761 21.583,32.111 C21.746,32.462 19.229,33.024 19.229,33.024 C19.229,33.024 19.606,33.756 19.867,34.056 C19.539,34.357 18.854,34.163 18.854,34.163 L18.618,35.095 L18.371,35.115 L18.084,34.623 C18.084,34.623 17.529,35.295 17.367,35.302 C17.202,35.308 15.716,35.370 15.208,35.302 C14.701,35.236 16.183,34.490 16.042,34.205 C15.902,33.919 15.748,33.607 15.748,33.607 C15.748,33.607 14.554,33.974 13.247,33.209 C13.737,29.935 13.795,24.731 13.625,23.435 C13.451,22.137 12.967,18.814 13.149,17.302 C13.329,15.789 12.598,13.765 12.903,13.014 C13.207,12.262 13.491,11.568 13.491,11.568 C13.491,11.568 11.808,7.413 11.824,7.030 C11.840,6.649 13.486,2.790 13.736,2.593 C13.989,2.394 14.586,1.927 14.815,1.744 C15.044,1.561 15.207,1.744 15.207,1.744 L17.267,0.099 C17.267,0.099 19.260,2.331 17.512,4.671 C15.910,6.815 13.344,5.785 13.344,5.785 C13.344,5.785 12.773,6.920 12.903,7.229 C12.969,7.383 13.305,7.732 13.526,8.177 C13.747,8.622 13.850,9.167 14.079,9.325 C14.539,9.640 14.733,10.671 15.356,10.620 C15.976,10.572 16.139,10.056 16.163,9.773 C16.188,9.490 15.476,9.366 15.391,9.120 C15.304,8.875 15.724,8.273 15.648,8.127 C15.574,7.979 15.435,7.790 15.599,7.777 C16.040,7.743 16.384,7.527 16.384,7.527 C16.384,7.527 16.843,6.747 17.512,6.830 C18.183,6.914 19.213,7.213 19.424,7.928 C19.636,8.642 19.047,9.610 19.081,9.773 C19.115,9.935 19.310,10.596 18.869,10.880 C18.428,11.162 17.856,10.321 17.693,10.472 C17.529,10.620 17.790,11.353 17.954,11.569 C18.117,11.785 18.622,11.668 19.083,11.868 C19.541,12.066 20.020,12.895 20.356,13.113 C20.693,13.334 22.154,14.295 22.611,14.559 C23.070,14.826 26.241,14.961 26.729,14.761 C27.220,14.558 26.926,14.610 27.514,14.486 C28.104,14.361 28.496,14.795 28.889,15.208 C29.158,15.497 30.311,16.333 31.143,17.253 C31.515,17.663 31.880,18.459 31.977,18.599 C32.286,19.050 30.358,19.794 30.358,19.794 ZM20.174,14.898 C19.662,14.739 18.722,13.646 18.331,13.596 C17.937,13.547 17.594,13.713 17.380,14.026 C17.169,14.343 16.615,15.058 16.516,15.391 C16.418,15.724 16.679,16.422 16.516,16.670 C19.277,15.907 22.872,15.739 22.872,15.739 C22.872,15.739 20.684,15.058 20.174,14.898 ZM10.453,10.022 C10.626,10.317 11.252,11.203 11.476,11.770 C11.705,12.335 12.359,14.660 12.408,15.958 C12.457,17.254 11.917,19.680 11.673,20.395 C11.428,21.110 9.466,34.058 9.515,34.657 C9.564,35.255 11.002,35.171 11.035,35.455 C11.069,35.738 10.497,36.003 9.712,36.003 C8.927,36.003 5.789,36.003 5.789,36.003 C5.789,36.003 5.544,35.337 5.789,34.954 C6.035,34.574 5.989,32.301 6.206,31.066 C6.425,29.833 7.785,22.272 7.655,21.091 C7.565,20.282 7.015,19.514 7.212,18.400 C7.408,17.286 7.996,16.221 8.094,15.658 C8.193,15.094 8.017,14.193 7.703,14.112 C7.389,14.031 6.593,13.878 6.084,13.363 C5.577,12.849 4.598,11.402 4.466,11.094 C4.336,10.787 3.633,10.222 3.388,9.971 C3.143,9.726 2.539,9.590 2.161,9.375 C1.787,9.161 -0.043,6.716 0.006,6.183 C0.035,5.860 0.432,5.366 0.839,4.838 C1.100,4.498 1.342,4.090 1.574,3.889 C2.171,3.377 3.172,2.521 3.012,2.643 C3.210,2.496 3.150,2.498 3.340,2.195 C3.530,1.893 4.124,0.827 4.468,0.699 C4.958,0.517 5.048,1.414 5.204,1.515 C5.359,1.614 6.037,0.699 6.136,0.950 C6.234,1.199 5.461,1.847 5.228,1.997 C4.996,2.146 4.585,2.399 4.370,2.595 C4.157,2.790 3.212,3.776 3.048,3.941 C2.885,4.107 3.108,4.506 2.949,4.639 C2.791,4.771 2.573,5.019 2.411,5.086 C2.319,5.125 2.441,5.488 2.427,5.802 C2.415,6.046 2.257,6.248 2.264,6.335 C2.280,6.535 3.931,7.880 3.931,7.880 C3.931,7.880 5.467,8.760 5.598,8.628 C5.729,8.495 5.598,8.080 5.598,8.080 C5.598,8.080 5.181,8.034 4.945,7.681 C4.720,7.345 4.682,6.702 4.617,6.533 C4.486,6.183 4.241,4.189 6.039,3.889 C7.838,3.591 7.838,5.469 7.953,5.785 C8.065,6.101 7.804,7.779 7.804,7.779 C7.804,7.779 8.246,7.994 8.442,7.779 C8.637,7.563 8.704,6.585 8.932,6.183 C9.160,5.781 9.930,4.454 10.011,4.090 C10.093,3.723 9.634,3.341 9.521,3.043 C9.407,2.743 9.564,2.332 9.564,2.332 C9.564,2.332 9.227,1.396 8.883,1.246 C8.540,1.100 7.298,1.744 7.118,1.545 C6.938,1.347 7.528,1.049 7.646,0.812 C7.266,0.699 6.742,0.099 7.118,0.099 C7.496,0.099 8.810,-0.109 9.031,0.099 C9.253,0.308 9.557,0.697 9.800,0.881 C10.041,1.065 10.534,1.223 10.649,1.446 C10.763,1.669 11.826,3.165 11.826,3.613 C11.826,4.063 10.279,9.727 10.453,10.022 Z"/>
</g>
</svg>