<svg xmlns="http://www.w3.org/2000/svg" width="26.85" height="34.94" viewBox="0 0 26.85 34.94">
  <defs>
    <style>
      .cls-1 {
        fill: #383a57;
        fill-rule: evenodd;
      }
    </style>
  </defs>
  <path id="Icon" class="cls-1" d="M1314.93,3574.97c-0.02-.07-0.83-0.43-1.68-0.99-0.08-.05.25-0.24,0.17-0.28-0.93-.56-1.28-0.42-2.01-0.86-2.19-1.34-4.6-3.13-4.6-3.13a12,12,0,0,0,.9-3.11c-0.11-.62-2.32-2.92-2.58-3.25s0.19-1.21.07-2.24a14.13,14.13,0,0,0-.51-1.82,3.229,3.229,0,0,1,.44-2.09,11.417,11.417,0,0,1,1.81-1.36,4.89,4.89,0,0,0,1.28.7,1.562,1.562,0,0,0,1.31-.29,1.428,1.428,0,0,0,.15-1.29c-0.13-.34-1.35-2.75-1.35-2.75a5.837,5.837,0,0,0,.29-1.37,0.573,0.573,0,0,1-.12-0.32,3.246,3.246,0,0,0,.01-0.84,0.375,0.375,0,0,0-.36-0.07,0.274,0.274,0,0,0-.21-0.24,0.438,0.438,0,0,0-.29.19s-0.14.18-.24,0.28-0.22-.05-0.42.09a2.217,2.217,0,0,0-.4.79,18.607,18.607,0,0,1-2.18-.84,4.564,4.564,0,0,1-1.17-1.51l-0.01-.67a1.643,1.643,0,0,0,.4-0.85,0.52,0.52,0,0,0-.19-0.59s0.36-1.22-.17-1.66a2.226,2.226,0,0,0-1.58-.56,3.93,3.93,0,0,0-1.22.31,0.979,0.979,0,0,0-.41.97l-0.1.98a2.384,2.384,0,0,0-.72-1.29,2.025,2.025,0,0,0-1.84-.51c-1.18.2-1.7,1.84-1.7,1.84a1.14,1.14,0,0,0-.48,1.34c0.28,0.92,1.36.84,1.5,1.1a3.02,3.02,0,0,1,.04,1.1s-1.84,4.15-2.16,4.86a1.9,1.9,0,0,0-.01,1.75,3.152,3.152,0,0,0,1.65-.61c0.01,0.7.94,0.99,1.03,1.43a76.861,76.861,0,0,1-3.4,10.55,13.949,13.949,0,0,0-1.71,2.29c-0.66,1.23-1.34,4.08-1.84,4.95s-2.01,1.72-2.17,2.28,0.03,1.55.47,1.58a1.687,1.687,0,0,0,1.1-.34c0.13-.13.45-0.67,0.88-1.22a6.7,6.7,0,0,0,.91-1.21,9.071,9.071,0,0,1,1.12-2.57,42.939,42.939,0,0,1,2.96-3.94s0.14,3.53.18,4.51,0.89,2,.92,2.6a1.2,1.2,0,0,1-.49,1.05c-0.2.22-.37,0.5,0.13,0.53s2.39,0,2.73,0-0.04-2.82.18-3.46,1.53-7.67,1.53-7.67,1.61,2.84,2.03,3.59a6.064,6.064,0,0,0,1.29,1.43,7.379,7.379,0,0,1-.02,1.82,8.106,8.106,0,0,1-.82,1.5,8.98,8.98,0,0,0-.29,2.31l0.26,0.1,0.37-.76a3.337,3.337,0,0,0,.51,1.52c0.31,0.08,1.03.07,1.54,0.12s0.75-.35.54-0.47-0.22-.14-0.52-0.34a0.556,0.556,0,0,1-.28-0.5l0.22-3.76,5.49,3.6,0.49-.2a0.525,0.525,0,0,1-.02.56,3.076,3.076,0,0,1-.7.25c-0.25.12-.14,0.37,0.35,0.49a7.067,7.067,0,0,0,1.38,0,2.208,2.208,0,0,0,.85-1.05l0.27-1.03a0.675,0.675,0,0,0,.62-0.23A3.82,3.82,0,0,0,1314.93,3574.97Zm-14.48-24.74a6.679,6.679,0,0,1-1.21.08,2.516,2.516,0,0,1,0-.91,2.1,2.1,0,0,1,.41-0.24,7.209,7.209,0,0,0,.42-1.45l0.72,1.55A5.166,5.166,0,0,1,1300.45,3550.23Z" transform="translate(-1288.09 -3544.03)"/>
</svg>
