<svg xmlns="http://www.w3.org/2000/svg" xmlns:xlink="http://www.w3.org/1999/xlink" width="25" height="36.03" viewBox="0 0 25 36.03">
  <defs>
    <style>
      .cls-1 {
        fill: #ff1a40;
        fill-rule: evenodd;
        filter: url(#filter);
      }
    </style>
    <filter id="filter" x="1205" y="3775.97" width="25" height="36.03" filterUnits="userSpaceOnUse">
      <feFlood result="flood" flood-color="#383a57"/>
      <feComposite result="composite" operator="in" in2="SourceGraphic"/>
      <feBlend result="blend" in2="SourceGraphic"/>
    </filter>
  </defs>
  <path id="Icon" class="cls-1" d="M1229.76,3793.41a9.18,9.18,0,0,1-.75-0.79,13.524,13.524,0,0,0-.97-1.12c-0.5-.4-1.19-0.93-1.39-1.05s-1.46-2.01-2.01-2.21-1.19-.57-1.78-0.85a0.859,0.859,0,0,1-.6-0.64,1.044,1.044,0,0,0,.49-0.02c0.04-.04.11-0.37,0.22-0.66a3.333,3.333,0,0,0,.22-0.67,2.62,2.62,0,0,1,.05-0.58,0.772,0.772,0,0,0,.12-0.39,3.5,3.5,0,0,0-.1-1.05,1.673,1.673,0,0,0-1.94-1.28,1.384,1.384,0,0,0-1.2,1.57,0.839,0.839,0,0,0-.68.89,1.545,1.545,0,0,0,.65,1.24s-0.1.32-.18,0.55a0.962,0.962,0,0,1-.71.23s-0.13-.57-0.2-0.89a1.36,1.36,0,0,0-.29-0.56,1.969,1.969,0,0,0-.4-0.81,4.412,4.412,0,0,0-.76-0.04,4.156,4.156,0,0,1-.25-0.7,29.8,29.8,0,0,1,.69-4.81,20.425,20.425,0,0,0,1.58-2.22c-0.09-.18-0.32.14-0.51,0.22s-0.17-.83-0.27-0.79a1.6,1.6,0,0,0-.74.62c-0.08.28-.24,0.69-0.24,0.69a0.45,0.45,0,0,1-.37.16,0.762,0.762,0,0,0-.44.82,5.318,5.318,0,0,1-.07,1.1s-0.22-.19-0.3,0c-0.1.19-.64,3.1-0.64,3.1a2.086,2.086,0,0,0-1.43-.91,1.693,1.693,0,0,0-1.61.68c-0.58.63-.19,2.6-0.19,2.77a0.7,0.7,0,0,1-.36.69,0.694,0.694,0,0,0-.41-0.11,3.636,3.636,0,0,1-1.57.36,1.959,1.959,0,0,1-.83-0.77,1.284,1.284,0,0,1,.07-0.88,0.591,0.591,0,0,0,.35-0.42,5.767,5.767,0,0,0,.27-0.99,3.974,3.974,0,0,1-.63.33c-0.2-.05.01-0.53-0.18-0.56a4.713,4.713,0,0,0-1.17.86,1.991,1.991,0,0,0-.04,1.04c0.05,0.51.13,1.08,0.17,1.37a3.945,3.945,0,0,0,.66,1.4c0.1,0.13,1.69.4,1.8,0.67s0.49,1.74.63,2.31a4.026,4.026,0,0,1-.53,1.83c-0.15.52,0.59,0.63,0.59,0.63s-0.32.42-.53,0.69,0.18,0.53-.01.86a2.944,2.944,0,0,0-.78,1.18c-0.18.71,0.11,1.75-.04,2.3a19.727,19.727,0,0,1-.82,2.96,1.529,1.529,0,0,0-.63.63,7.863,7.863,0,0,1-.38.94c-0.15.36-1.05,1.24-1.59,2.32-0.54,1.06-.18,1.69-0.46,2.27s-1.08,2.01-1.3,2.43a0.97,0.97,0,0,0,.06.75c0.09,0.35.18,0.94,0.18,0.94h0.82l0.14-.55s0.83,0.48.96,0.55a7.4,7.4,0,0,0,1.49-.3s0.5-.27.21-0.54-1.05-.43-1.17-0.85,5.18-9.16,5.18-9.16a4.08,4.08,0,0,1,.9,1.79c0.04,0.76.39,6.32,0.42,6.81a1.027,1.027,0,0,1-.15.64,4.184,4.184,0,0,0,.46,2.12c0.25,0.06,3.09,0,3.09,0l0.26-.33s0.61,0.27,1.11.5,6.8,0.11,6.8.11l0.21,0.17h1.81s0.12-.69.27-1.28a1.679,1.679,0,0,0,.19-0.82c-0.24-.28-2.32-5.64-2.6-6.37s-0.62-6.67-.79-7.74a11.946,11.946,0,0,0-.95-2.94,5.968,5.968,0,0,1,.07-2.55s0.73,0.64,1.14.97c0.17,0.13.49,0.22,0.78,0.42,0.43,0.31.82,0.87,1.19,1.15a9.91,9.91,0,0,0,1.36.75,1.385,1.385,0,0,1-.11,1,0.2,0.2,0,0,0,.23.3l-0.02.33s0.09,0.26.25,0.16c0.02,0.12.05,0.25,0.05,0.25s0.12,0.26.25,0.06,0.52-.78.75-1.12A1.163,1.163,0,0,0,1229.76,3793.41Zm-14.32-7.13a2.563,2.563,0,0,0,.18-0.75,5.563,5.563,0,0,0,.28-1.12c0-.15.17,0.66,0.44,1.4a7.956,7.956,0,0,0,.54,1.14,8.221,8.221,0,0,1-1.23,0,1.468,1.468,0,0,1-.72-0.58A0.824,0.824,0,0,0,1215.44,3786.28Zm3.16,10.69-0.71,2.7-0.19,5.2,0.85-.09-1.77,2.93s0.37-5.5.23-6.18a48.443,48.443,0,0,0-2.33-4.35c-0.17-.37.55-1.03,0.7-2.02,0.34-2.32.52-5.82,0.52-5.82l1.59-.45,0.32,2.65,0.93,2.65-0.39,2.31Z" transform="translate(-1205 -3775.97)"/>
</svg>
