<svg xmlns="http://www.w3.org/2000/svg" xmlns:xlink="http://www.w3.org/1999/xlink" width="28" height="35.97" viewBox="0 0 28 35.97">
  <defs>
    <style>
      .cls-1 {
        fill: #ff1a40;
        fill-rule: evenodd;
        filter: url(#filter);
      }
    </style>
    <filter id="filter" x="1203" y="3293.03" width="28" height="35.97" filterUnits="userSpaceOnUse">
      <feFlood result="flood" flood-color="#383a57"/>
      <feComposite result="composite" operator="in" in2="SourceGraphic"/>
      <feBlend result="blend" in2="SourceGraphic"/>
    </filter>
  </defs>
  <path id="Icon" class="cls-1" d="M1229.98,3321.55c-0.08.41-.5,0.48-0.56,0.9a1.746,1.746,0,0,1-.59,1.11,12.305,12.305,0,0,0-1.25.99,12.893,12.893,0,0,0-.88,1.28,8.8,8.8,0,0,1-1.83,1.45,7.686,7.686,0,0,1-1.43.97,3.641,3.641,0,0,0-.97.04,1.742,1.742,0,0,1-1.02.71,32.812,32.812,0,0,0-3.42-.27c-0.95.08-2.53,0.2-4.25,0.27a22.384,22.384,0,0,1-3.2-.28c-1.14-.03-3.65.11-3.65,0.11a1.938,1.938,0,0,0-1.07-.77c-0.44.05-.25,0.62-0.52,0.62s-2.3-.03-2.3-0.03a0.628,0.628,0,0,1,.65-0.84,2.1,2.1,0,0,0,1.19-.38s-0.53-.15-0.35-0.27a41.431,41.431,0,0,0,3.89-5.19c0.69-1.33.27-2.26,1.33-4.76s3.28-5.93,3.53-7a10.237,10.237,0,0,0,.03-3.07c-0.13-1.18-.65-2-0.25-2.8,0.41-.83,1.83-1.7,2.02-2.45a31.692,31.692,0,0,0-.47-5.05,4.965,4.965,0,0,1,.08-1.39,0.678,0.678,0,0,0-.33-0.18c-0.17-.01-0.25-0.37.09-0.37h0.75l0.18-.36-0.83-.47a0.381,0.381,0,0,1,.21-0.32h0.4a0.424,0.424,0,0,1,.3-0.14c0.1,0.04.33,0.14,0.33,0.14a0.423,0.423,0,0,0,.06-0.37c-0.08-.17.08-0.51,0.19-0.29a7.04,7.04,0,0,1,.64,1.2,5.861,5.861,0,0,1,.03.73,11.223,11.223,0,0,0-.73,1.35,10.224,10.224,0,0,0,.41,1.79c0.08,0.21.36,0.41,0.48,0.24a1.776,1.776,0,0,1,1.91-1.06,1.468,1.468,0,0,1,1.59,1.28,7.677,7.677,0,0,1-.07,1.22,1.191,1.191,0,0,1-.26.64,4.57,4.57,0,0,0-.01.65,6.728,6.728,0,0,0-.59.97,1.157,1.157,0,0,0,.62.79,10.162,10.162,0,0,0,1.23.59c0.48,0.25.85,0.76,1.44,1.14a10.527,10.527,0,0,1,1.24.78,3.963,3.963,0,0,1,1.02,1.01,20.874,20.874,0,0,1,.24,3.08,3.866,3.866,0,0,1-.27.79c-0.11.1-1.57,1.53-1.57,1.53s-0.36.15-.36-0.05,0.03-1.18.03-1.18-0.56-.14-0.76-0.16-0.39-.29-0.12-0.28a4.98,4.98,0,0,0,.77.01,1.17,1.17,0,0,0,.53-0.26s-0.4-.04-0.24-0.2,0.71-.08.81-0.21a4.345,4.345,0,0,0-.41-2.36,14,14,0,0,0-1.87-1.12,2.394,2.394,0,0,0-2.01-.43,3.112,3.112,0,0,0-2.31,2.08,23.774,23.774,0,0,0,.81,3.64,9.723,9.723,0,0,0,1.06,1.44c0.6,0.8,1.28,1.73,1.6,1.72,0.57-.01.67-0.58,1.71-1.08,0.63-.3,1.74-0.48,2.4-0.77a5.61,5.61,0,0,1,2.62-.76c0.92,0.37,1.06,1.01,1.67,1.53a7.175,7.175,0,0,1,1.38,1.08,3.222,3.222,0,0,1,.09,2.49c-0.21.56-1.68,3.68-1.49,3.91S1230.06,3321.13,1229.98,3321.55Z" transform="translate(-1203 -3293.03)"/>
</svg>
