<svg xmlns="http://www.w3.org/2000/svg" width="20" height="16" viewBox="0 0 20 16">
  <defs>
    <style>
      .cls-1 {
        fill: #fff;
        fill-rule: evenodd;
      }
    </style>
  </defs>
  <path id="Icon" class="cls-1" d="M1168.21,9895a1.682,1.682,0,0,0,1.17-.45l-5.66-5.77c-0.14.1-.27,0.2-0.39,0.29-0.43.32-.77,0.56-1.04,0.74a6.219,6.219,0,0,1-1.05.55,3.264,3.264,0,0,1-1.23.27h-0.02a3.264,3.264,0,0,1-1.23-.27,6.219,6.219,0,0,1-1.05-.55c-0.27-.18-0.61-0.42-1.04-0.74-0.11-.09-0.25-0.19-0.39-0.29l-5.66,5.77a1.682,1.682,0,0,0,1.17.45h16.42Zm-17.08-9.85a5.99,5.99,0,0,1-1.13-.99v8.78l4.99-5.09Q1153.505,9886.785,1151.13,9885.15Zm17.75,0c-1.52,1.04-2.81,1.95-3.87,2.7l4.99,5.09v-8.78A6.342,6.342,0,0,1,1168.88,9885.15Zm-0.67-6.15h-16.42a1.6,1.6,0,0,0-1.33.59,2.315,2.315,0,0,0-.46,1.48,2.666,2.666,0,0,0,.61,1.55,5.6,5.6,0,0,0,1.31,1.31c0.25,0.18,1.02.72,2.29,1.62,0.68,0.48,1.28.91,1.8,1.27,0.43,0.31.81,0.58,1.12,0.8,0.04,0.03.09,0.07,0.17,0.12s0.18,0.14.31,0.23c0.24,0.18.44,0.32,0.6,0.43s0.35,0.23.58,0.37a3.374,3.374,0,0,0,.64.31,1.7,1.7,0,0,0,.56.1h0.02a1.7,1.7,0,0,0,.56-0.1,3.374,3.374,0,0,0,.64-0.31c0.23-.14.42-0.26,0.58-0.37s0.36-.25.6-0.43c0.13-.09.23-0.17,0.31-0.22s0.13-.1.17-0.13c0.24-.17.62-0.44,1.13-0.8,0.92-.65,2.29-1.61,4.09-2.89a5.323,5.323,0,0,0,1.36-1.4,2.97,2.97,0,0,0,.55-1.71,1.791,1.791,0,0,0-.53-1.29A1.723,1.723,0,0,0,1168.21,9879Z" transform="translate(-1150 -9879)"/>
</svg>
