<svg id="Logo" xmlns="http://www.w3.org/2000/svg" width="213.719" height="50" viewBox="0 0 213.719 50">
  <defs>
    <style>
      .cls-1 {
        fill: #fff;
        fill-rule: evenodd;
      }
    </style>
  </defs>
  <path id="Icon" class="cls-1" d="M400,10340a25,25,0,1,0,25,25A25,25,0,0,0,400,10340Zm9.09,27.5v7.7H403.14l2.471-3.2v-7.3l-5.755,8.2h-0.049l-5.539-7.7v6.7l2.591,3.3h-5.95v-20.4h0.025l8.945,12.6,9.161-12.6h0.049v12.7Z" transform="translate(-375 -10340)"/>
  <path id="Multifarious" class="cls-1" d="M458.762,10375.6a4.779,4.779,0,0,1-1.456-.2,0.975,0.975,0,0,1-.64-0.6,5.26,5.26,0,0,1-.24-1.4l-0.768-14.6a2.126,2.126,0,0,1,.608-1.8,2.78,2.78,0,0,1,2.176-.7c0.064,0,.1,0,0.1-0.1,0-.2-0.032-0.2-0.1-0.2H453.77a0.946,0.946,0,0,0-.56.1,3.652,3.652,0,0,0-.4.7l-6.08,13.9-6.976-13.1c-0.406-.7-0.683-1.2-0.832-1.4a1.138,1.138,0,0,0-.64-0.2h-5.088c-0.064,0-.1,0-0.1.2,0,0.1.032,0.1,0.1,0.1a2.34,2.34,0,0,1,1.584.6,5.722,5.722,0,0,1,1.328,1.7h0.032l-0.288,13.3a4.622,4.622,0,0,1-.8,2.7,2.675,2.675,0,0,1-2.08,1c-0.064,0-.1,0-0.1.2a0.176,0.176,0,0,0,.1.2c0.576,0,1.034-.1,1.376-0.1h3.776c0.32,0,.768.1,1.344,0.1a0.176,0.176,0,0,0,.1-0.2c0-.2-0.032-0.2-0.1-0.2a2.281,2.281,0,0,1-2.032-1,4.51,4.51,0,0,1-.688-2.7l0.256-11.6,8.1,15.4a0.264,0.264,0,0,0,.512,0l6.592-15.4,0.672,13.1,0.032,0.5a1.74,1.74,0,0,1-.48,1.4,3.791,3.791,0,0,1-1.824.3c-0.064,0-.1,0-0.1.2a0.176,0.176,0,0,0,.1.2c0.7,0,1.258-.1,1.664-0.1h4.768c0.426,0,1,.1,1.728.1a0.206,0.206,0,0,0,.064-0.2c0-.2-0.022-0.2-0.064-0.2h0Zm16.672-1.7a4.426,4.426,0,0,1-1.312.3,0.668,0.668,0,0,1-.688-0.4,4.12,4.12,0,0,1-.208-1.6v-8.5a0.893,0.893,0,0,0-.176-0.2,0.645,0.645,0,0,0-.336-0.2,0.139,0.139,0,0,0-.16.1l-4.288,2c-0.064,0-.075.1-0.032,0.2a0.281,0.281,0,0,0,.16.2h0.032a1.414,1.414,0,0,1,.832-0.2c0.661,0,.992.7,0.992,2v5.5a3.829,3.829,0,0,1-1.3.9,3.683,3.683,0,0,1-1.424.3c-1.771,0-2.656-1.2-2.656-3.5v-7.1a0.893,0.893,0,0,0-.176-0.2,0.645,0.645,0,0,0-.336-0.2l-0.16.1-4.288,2c-0.064,0-.075.1-0.032,0.2a0.27,0.27,0,0,0,.192.2h0.032a1.29,1.29,0,0,1,.8-0.2c0.661,0,.992.7,0.992,2v4.7a4.069,4.069,0,0,0,1.008,2.9,3.353,3.353,0,0,0,2.768,1.1,5.912,5.912,0,0,0,4.576-2.5,6.222,6.222,0,0,0,.272,1.9,0.767,0.767,0,0,0,.56.7h0.16l4.416-2.2c0.064,0,.069-0.1.016-0.2a0.163,0.163,0,0,0-.176-0.1h-0.064Zm1.375,2.1c0.555,0,.992-0.1,1.312-0.1h3.872c0.32,0,.747.1,1.28,0.1a0.172,0.172,0,0,0,.128-0.2c0-.2-0.043-0.2-0.128-0.2a1.642,1.642,0,0,1-1.344-.5,2.987,2.987,0,0,1-.352-1.7v-20.2a0.405,0.405,0,0,0-.192-0.3,0.506,0.506,0,0,0-.352-0.1h-0.128l-4.7,2.2c-0.043,0-.037.1,0.016,0.2a0.322,0.322,0,0,0,.176.2h0.032a2.6,2.6,0,0,1,1.216-.4,0.776,0.776,0,0,1,.72.5,4.477,4.477,0,0,1,.208,1.6l-0.032,16.3a2.887,2.887,0,0,1-.368,1.7,1.693,1.693,0,0,1-1.36.5c-0.043,0-.064,0-0.064.2a0.2,0.2,0,0,0,.064.2h0Zm17.76-2.2a4.155,4.155,0,0,1-2.5.9,2.277,2.277,0,0,1-1.648-.6,2.11,2.11,0,0,1-.624-1.8v-7.5a18.913,18.913,0,0,1,4.032.4c0.085,0.1.165,0,.24-0.2a1.886,1.886,0,0,0,.112-0.7,2.288,2.288,0,0,0-.08-0.5,0.4,0.4,0,0,0-.144-0.2q-2.3.15-4.16,0.3v-2.6c0-.1-0.07-0.1-0.208-0.1a0.24,0.24,0,0,0-.272.1,4.451,4.451,0,0,1-1.552,2,6.3,6.3,0,0,1-2.64.7h-0.1a1.979,1.979,0,0,0-.032.2,0.244,0.244,0,0,0,.048.2c0.032,0.1.058,0.1,0.08,0.1a1.968,1.968,0,0,1,1.28.4,2.142,2.142,0,0,1,.352,1.4v7.1a2.616,2.616,0,0,0,.992,2.3,4.552,4.552,0,0,0,2.4.6,4.851,4.851,0,0,0,2.368-.5,9.893,9.893,0,0,0,2.3-1.8c0.064,0,.069-0.1.016-0.2a1.313,1.313,0,0,0-.208-0.1Zm4.768-13.7a1.956,1.956,0,0,0,1.376-.5,2.282,2.282,0,0,0,0-2.8,1.956,1.956,0,0,0-1.376-.5,2.143,2.143,0,0,0-1.424.5,1.939,1.939,0,0,0-.528,1.4,1.815,1.815,0,0,0,.512,1.4,2.125,2.125,0,0,0,1.44.5h0Zm-3.072,15.9c0.554,0,.992-0.1,1.312-0.1h3.808c0.32,0,.757.1,1.312,0.1a0.176,0.176,0,0,0,.1-0.2c0-.2-0.032-0.2-0.1-0.2a1.692,1.692,0,0,1-1.36-.5,2.879,2.879,0,0,1-.368-1.7v-5.8c0-1.3.021-2.3,0.064-3.2v-0.7s-0.054-.1-0.16-0.3a0.41,0.41,0,0,0-.32-0.1h-0.1l-4.832,2.3c-0.064,0-.075.1-0.032,0.2a0.164,0.164,0,0,0,.192.1h0.032a3.568,3.568,0,0,1,1.184-.3,0.809,0.809,0,0,1,.736.5,3.629,3.629,0,0,1,.224,1.5v5.8a3,3,0,0,1-.352,1.7,1.642,1.642,0,0,1-1.344.5c-0.064,0-.1,0-0.1.2a0.176,0.176,0,0,0,.1.2h0Zm17.375-23.3a6.694,6.694,0,0,0-5.5,2.3c-1.216,1.6-1.877,4.1-1.984,7.6a1.392,1.392,0,0,1-.448,1.1,2.792,2.792,0,0,1-1.536.3q-0.1,0-.1.3t0.1,0.3a3.037,3.037,0,0,1,1.632.3,1.508,1.508,0,0,1,.416,1.3v7.2a5.133,5.133,0,0,1-.144,1.4,0.886,0.886,0,0,1-.544.6,3.52,3.52,0,0,1-1.232.2c-0.085,0-.128,0-0.128.2a0.172,0.172,0,0,0,.128.2c0.619,0,1.1-.1,1.44-0.1h4.128l2.208,0.1a0.172,0.172,0,0,0,.128-0.2c0-.2-0.043-0.2-0.128-0.2a7.757,7.757,0,0,1-1.872-.2,1.068,1.068,0,0,1-.784-0.6,3.917,3.917,0,0,1-.192-1.4v-8.6a17.54,17.54,0,0,1,3.424.4c0.064,0.1.133,0,.208-0.2a1.866,1.866,0,0,0,.112-0.7,2.765,2.765,0,0,0-.064-0.5,0.283,0.283,0,0,0-.16-0.2q-2.528.15-3.52,0.3v-2a18.005,18.005,0,0,1,.848-6.4c0.565-1.4,1.339-2,2.32-2a1.464,1.464,0,0,1,1.024.3,3.731,3.731,0,0,1,.608,1,2.363,2.363,0,0,0,.64,1,1.314,1.314,0,0,0,1.12.4,2.233,2.233,0,0,0,1.136-.4,1.54,1.54,0,0,0,.5-1.2,1.61,1.61,0,0,0-.992-1.4,6.812,6.812,0,0,0-2.784-.5h0Zm12.928,21.5a1.753,1.753,0,0,1-.928.3,1.04,1.04,0,0,1-.944-0.6,2.419,2.419,0,0,1-.336-1.4v-5.7a3.463,3.463,0,0,0-.88-2.6,3.058,3.058,0,0,0-2.288-.9,10.674,10.674,0,0,0-2.8.5,9.857,9.857,0,0,0-2.7,1.5,2.286,2.286,0,0,0-1.12,1.8,1.094,1.094,0,0,0,.368.9,1.841,1.841,0,0,0,1.168.3,1.764,1.764,0,0,0,1.3-.4,2.049,2.049,0,0,0,.56-1.4c0.149-1.7.789-2.6,1.92-2.6a1.178,1.178,0,0,1,1.136.9,9.453,9.453,0,0,1,.336,3v1.8l-2.88,1.1-0.8.3a9.428,9.428,0,0,0-1.744.7,2.4,2.4,0,0,0-1.04.8,2.07,2.07,0,0,0-.416,1.4,2.159,2.159,0,0,0,.7,1.7,3.132,3.132,0,0,0,2.08.6,3.355,3.355,0,0,0,1.44-.3,5.324,5.324,0,0,0,1.376-.7l1.376-1a3.669,3.669,0,0,0,.656,1.5,1.469,1.469,0,0,0,.976.5h0.32l3.3-1.6c0.085-.1.112-0.1,0.08-0.2a0.241,0.241,0,0,0-.176-0.2h-0.032Zm-5.888-.1a1.6,1.6,0,0,1-1.056.4,2.233,2.233,0,0,1-1.136-.4,1.54,1.54,0,0,1-.5-1.2,1.925,1.925,0,0,1,.4-1.2,3.373,3.373,0,0,1,.944-0.7c0.363-.1.576-0.2,0.64-0.2l1.376-.6v3a3,3,0,0,0,.032.5Zm15.552-10.8a3.423,3.423,0,0,0-1.488.5,15.728,15.728,0,0,0-2.16,1.9,5.757,5.757,0,0,0-.368-1.8,0.862,0.862,0,0,0-.656-0.6,0.356,0.356,0,0,0-.224.1l-4.448,2.1c-0.043,0-.048.1-0.016,0.2a0.248,0.248,0,0,0,.144.2h0.064a4.407,4.407,0,0,1,1.536-.5,0.842,0.842,0,0,1,.752.5,3.406,3.406,0,0,1,.24,1.5v6a3,3,0,0,1-.352,1.7,1.642,1.642,0,0,1-1.344.5c-0.064,0-.1,0-0.1.2a0.176,0.176,0,0,0,.1.2c0.554,0,.992-0.1,1.312-0.1h4.48c0.426,0,1.013.1,1.76,0.1a0.172,0.172,0,0,0,.128-0.2c0-.2-0.043-0.2-0.128-0.2a3.912,3.912,0,0,1-2.24-.5,2.042,2.042,0,0,1-.608-1.7v-6.9a5.835,5.835,0,0,1,1.136-1,1.118,1.118,0,0,1,.688-0.3,0.868,0.868,0,0,1,.5.2,3.042,3.042,0,0,1,.5.4,1.818,1.818,0,0,0,.624.6,1.017,1.017,0,0,0,.784.2,1.379,1.379,0,0,0,1.088-.4,1.621,1.621,0,0,0,.416-1.1,1.676,1.676,0,0,0-.688-1.3,2.64,2.64,0,0,0-1.424-.5h0Zm6.88-3.2a1.956,1.956,0,0,0,1.376-.5,2.282,2.282,0,0,0,0-2.8,1.956,1.956,0,0,0-1.376-.5,2.143,2.143,0,0,0-1.424.5,1.939,1.939,0,0,0-.528,1.4,1.815,1.815,0,0,0,.512,1.4,2.125,2.125,0,0,0,1.44.5h0Zm-3.072,15.9c0.554,0,.992-0.1,1.312-0.1h3.808c0.32,0,.757.1,1.312,0.1a0.176,0.176,0,0,0,.1-0.2c0-.2-0.032-0.2-0.1-0.2a1.692,1.692,0,0,1-1.36-.5,2.879,2.879,0,0,1-.368-1.7v-5.8c0-1.3.021-2.3,0.064-3.2v-0.7s-0.054-.1-0.16-0.3a0.41,0.41,0,0,0-.32-0.1h-0.1l-4.832,2.3c-0.064,0-.075.1-0.032,0.2a0.164,0.164,0,0,0,.192.1h0.032a3.568,3.568,0,0,1,1.184-.3,0.809,0.809,0,0,1,.736.5,3.629,3.629,0,0,1,.224,1.5v5.8a3,3,0,0,1-.352,1.7,1.642,1.642,0,0,1-1.344.5c-0.064,0-.1,0-0.1.2a0.176,0.176,0,0,0,.1.2h0Zm14.751,0.4a7.082,7.082,0,0,0,3.5-.9,6.247,6.247,0,0,0,3.536-5.7,6.9,6.9,0,0,0-.784-3.2,6.331,6.331,0,0,0-2.256-2.5,6.492,6.492,0,0,0-3.456-.9,7.907,7.907,0,0,0-3.36.7,6.5,6.5,0,0,0-2.688,2.2,5.783,5.783,0,0,0-1.056,3.5,7.306,7.306,0,0,0,.8,3.4,6.4,6.4,0,0,0,2.288,2.5,6.576,6.576,0,0,0,3.472.9h0Zm0.96-.7a2.885,2.885,0,0,1-2.048-.9,6.394,6.394,0,0,1-1.472-2.6,11.832,11.832,0,0,1-.544-3.8q0-4.5,2.56-4.5a2.7,2.7,0,0,1,1.984.8,5.211,5.211,0,0,1,1.5,2.4,11.235,11.235,0,0,1,.576,3.8,7.733,7.733,0,0,1-.656,3.6,2.068,2.068,0,0,1-1.9,1.2h0Zm23.008-1.8a4.419,4.419,0,0,1-1.312.3,0.668,0.668,0,0,1-.688-0.4,4.12,4.12,0,0,1-.208-1.6v-8.5a0.893,0.893,0,0,0-.176-0.2,0.638,0.638,0,0,0-.336-0.2,0.14,0.14,0,0,0-.16.1l-4.288,2c-0.064,0-.075.1-0.032,0.2a0.283,0.283,0,0,0,.16.2h0.032a1.414,1.414,0,0,1,.832-0.2c0.661,0,.992.7,0.992,2v5.5a3.829,3.829,0,0,1-1.3.9,3.683,3.683,0,0,1-1.424.3c-1.771,0-2.656-1.2-2.656-3.5v-7.1a0.893,0.893,0,0,0-.176-0.2,0.638,0.638,0,0,0-.336-0.2l-0.16.1-4.288,2c-0.064,0-.075.1-0.032,0.2a0.273,0.273,0,0,0,.192.2h0.032a1.291,1.291,0,0,1,.8-0.2c0.661,0,.992.7,0.992,2v4.7a4.069,4.069,0,0,0,1.008,2.9,3.354,3.354,0,0,0,2.768,1.1,5.91,5.91,0,0,0,4.576-2.5,6.222,6.222,0,0,0,.272,1.9,0.768,0.768,0,0,0,.56.7h0.16l4.416-2.2c0.064,0,.069-0.1.016-0.2a0.163,0.163,0,0,0-.176-0.1h-0.064Zm4.032-8.8a1.113,1.113,0,0,1,1.312-1.2,3.506,3.506,0,0,1,1.68.5,5.127,5.127,0,0,1,1.328,1.2,2.616,2.616,0,0,1,.512,1.4,0.234,0.234,0,0,0,.384,0l0.032-1.6c0.021-.3.032-0.7,0.032-1.3a0.26,0.26,0,0,0-.288-0.3,3.926,3.926,0,0,0-1.328-.4,5.54,5.54,0,0,0-1.328-.1,5.789,5.789,0,0,0-3.3.9,3.033,3.033,0,0,0-1.344,2.7,3.444,3.444,0,0,0,.448,1.8,5.768,5.768,0,0,0,1.024,1.1q0.576,0.3,1.7.9a7.991,7.991,0,0,1,1.984,1.5,2.439,2.439,0,0,1,.672,1.8,1.843,1.843,0,0,1-.4,1.3,1.781,1.781,0,0,1-1.072.4,3.7,3.7,0,0,1-2.4-1.1,6.723,6.723,0,0,1-1.7-2.8h-0.208c-0.118,0-.176,0-0.176.1l0.064,3.2a0.405,0.405,0,0,0,.192.3,6.579,6.579,0,0,0,3.328.9,5.293,5.293,0,0,0,2.592-.6,4.241,4.241,0,0,0,1.632-1.5,4.538,4.538,0,0,0,.544-2.1,2.933,2.933,0,0,0-.48-1.7,3.028,3.028,0,0,0-1.072-1.1,11.248,11.248,0,0,0-1.808-1.1,7.985,7.985,0,0,1-1.9-1.5,2.014,2.014,0,0,1-.656-1.6h0Z" transform="translate(-375 -10340)"/>
</svg>
