<svg 
 xmlns="http://www.w3.org/2000/svg"
 xmlns:xlink="http://www.w3.org/1999/xlink"
 width="24px" height="24px">
<path fill-rule="evenodd"  fill="rgb(255, 255, 255)"
 d="M13.199,6.000 L10.801,6.000 L10.801,10.801 L6.000,10.801 L6.000,13.199 L10.801,13.199 L10.801,18.000 L13.199,18.000 L13.199,13.199 L18.000,13.199 L18.000,10.801 L13.199,10.801 L13.199,6.000 ZM12.000,-0.000 C5.388,-0.000 -0.000,5.387 -0.000,12.000 C-0.000,18.610 5.388,23.999 12.000,23.999 L21.600,23.999 C22.920,23.999 24.000,22.920 24.000,21.600 L24.000,12.000 C24.000,5.387 18.611,-0.000 12.000,-0.000 ZM12.000,21.600 C6.707,21.600 2.400,17.293 2.400,12.000 C2.400,6.707 6.707,2.400 12.000,2.400 C17.293,2.400 21.600,6.707 21.600,12.000 C21.600,17.293 17.293,21.600 12.000,21.600 Z"/>
</svg>