<svg id="Logo" xmlns="http://www.w3.org/2000/svg" width="213.719" height="50" viewBox="0 0 213.719 50">
  <defs>
    <style>
      .cls-1 {
        fill: #ff3052;
      }

      .cls-1, .cls-2 {
        fill-rule: evenodd;
      }

      .cls-2 {
        fill: #3b3d60;
      }
    </style>
  </defs>
  <path id="Icon" class="cls-1" d="M85,40a25,25,0,1,0,25,25A25,25,0,0,0,85,40Zm9.09,27.493v7.745H88.14l2.472-3.218V64.712L84.856,72.89H84.807l-5.539-7.651v6.627l2.591,3.372h-5.95V54.76h0.025l8.945,12.685L94.041,54.76h0.049V67.493Z" transform="translate(-60 -40)"/>
  <path id="Multifarious" class="cls-2" d="M143.762,75.575a4.815,4.815,0,0,1-1.456-.16,1,1,0,0,1-.64-0.608,5.137,5.137,0,0,1-.24-1.44l-0.768-14.528a2.261,2.261,0,0,1,.608-1.888,3.2,3.2,0,0,1,2.176-.608q0.1,0,.1-0.192t-0.1-.192q-0.833,0-1.28.032l-1.888.032q-0.48,0-.848-0.032c-0.246-.021-0.464-0.032-0.656-0.032a0.839,0.839,0,0,0-.56.176,1.7,1.7,0,0,0-.4.624l-6.08,13.952-6.976-13.088a14.276,14.276,0,0,0-.832-1.376,0.764,0.764,0,0,0-.64-0.288,6.982,6.982,0,0,0-.736.032l-1.7.032q-0.7,0-1.152-.032l-1.5-.032q-0.1,0-.1.192t0.1,0.192a2.484,2.484,0,0,1,1.584.544,5.559,5.559,0,0,1,1.328,1.728l0.032,0.032L120.85,71.9a4.428,4.428,0,0,1-.8,2.688,2.492,2.492,0,0,1-2.08.992q-0.1,0-.1.192t0.1,0.192q0.864,0,1.376-.032l2.016-.032,1.76,0.032q0.48,0.032,1.344.032,0.1,0,.1-0.192t-0.1-.192a2.376,2.376,0,0,1-2.032-.976,4.329,4.329,0,0,1-.688-2.7L122,60.343l8.1,15.392a0.32,0.32,0,0,0,.512,0L137.2,60.279l0.672,13.088,0.032,0.544a1.523,1.523,0,0,1-.48,1.344,3.583,3.583,0,0,1-1.824.32q-0.1,0-.1.192t0.1,0.192q1.056,0,1.664-.032l2.4-.032,2.368,0.032q0.639,0.032,1.728.032c0.042,0,.064-0.064.064-0.192s-0.022-.192-0.064-0.192h0Zm16.672-1.7a3.87,3.87,0,0,1-1.312.352,0.708,0.708,0,0,1-.688-0.448,3.988,3.988,0,0,1-.208-1.536V63.735a0.387,0.387,0,0,0-.176-0.272,0.544,0.544,0,0,0-.336-0.144,0.359,0.359,0,0,0-.16.032L153.266,65.4c-0.064.022-.075,0.091-0.032,0.208a0.207,0.207,0,0,0,.16.176h0.032a2.033,2.033,0,0,1,.832-0.224q0.992,0,.992,2.08v5.472a4.314,4.314,0,0,1-1.3.848,3.636,3.636,0,0,1-1.424.3q-2.657,0-2.656-3.456V63.735a0.387,0.387,0,0,0-.176-0.272,0.544,0.544,0,0,0-.336-0.144l-0.16.032L144.914,65.4c-0.064.022-.075,0.091-0.032,0.208a0.213,0.213,0,0,0,.192.176h0.032a1.828,1.828,0,0,1,.8-0.224q0.992,0,.992,2.08v4.7a4.127,4.127,0,0,0,1.008,2.9,3.56,3.56,0,0,0,2.768,1.1,6.015,6.015,0,0,0,4.576-2.5,6.382,6.382,0,0,0,.272,1.872,0.8,0.8,0,0,0,.56.688,0.362,0.362,0,0,0,.16-0.032l4.416-2.144c0.064-.021.069-0.085,0.016-0.192a0.229,0.229,0,0,0-.176-0.16h-0.064Zm1.375,2.08q0.833,0,1.312-.032l1.92-.032,1.952,0.032q0.48,0.032,1.28.032c0.085,0,.128-0.064.128-0.192s-0.043-.192-0.128-0.192a1.607,1.607,0,0,1-1.344-.464,3.058,3.058,0,0,1-.352-1.744V53.175a0.383,0.383,0,0,0-.192-0.272,0.6,0.6,0,0,0-.352-0.144l-0.128.032L161.2,55c-0.043.021-.037,0.091,0.016,0.208a0.234,0.234,0,0,0,.176.176h0.032a3.38,3.38,0,0,1,1.216-.352,0.731,0.731,0,0,1,.72.48,4.38,4.38,0,0,1,.208,1.6l-0.032,16.256a2.955,2.955,0,0,1-.368,1.744,1.657,1.657,0,0,1-1.36.464c-0.043,0-.064.064-0.064,0.192s0.021,0.192.064,0.192h0Zm17.76-2.208a4,4,0,0,1-2.5.96,2.1,2.1,0,0,1-2.272-2.368V64.759a20.787,20.787,0,0,1,4.032.48q0.128,0.032.24-.272a1.806,1.806,0,0,0,.112-0.624,1.671,1.671,0,0,0-.08-0.528,0.327,0.327,0,0,0-.144-0.24q-2.3.257-4.16,0.288V61.3c0-.085-0.07-0.128-0.208-0.128a0.273,0.273,0,0,0-.272.128,4.068,4.068,0,0,1-1.552,1.952,5.253,5.253,0,0,1-2.64.7,0.1,0.1,0,0,0-.1.08,0.556,0.556,0,0,0-.032.208,0.426,0.426,0,0,0,.048.192,0.147,0.147,0,0,0,.08.1,1.7,1.7,0,0,1,1.28.384,2.057,2.057,0,0,1,.352,1.376v7.1a2.541,2.541,0,0,0,.992,2.272,4.176,4.176,0,0,0,2.4.672,5.231,5.231,0,0,0,2.368-.56,9.117,9.117,0,0,0,2.3-1.744,0.124,0.124,0,0,0,.016-0.192,0.24,0.24,0,0,0-.208-0.128Zm4.768-13.632a1.794,1.794,0,0,0,1.376-.512,2.023,2.023,0,0,0,.48-1.44,1.817,1.817,0,0,0-.48-1.344,1.863,1.863,0,0,0-1.376-.48,2,2,0,0,0-1.424.5,1.736,1.736,0,0,0-.528,1.328,1.78,1.78,0,0,0,1.952,1.952h0Zm-3.072,15.84q0.831,0,1.312-.032l1.888-.032,1.92,0.032q0.48,0.032,1.312.032,0.1,0,.1-0.192t-0.1-.192a1.656,1.656,0,0,1-1.36-.464,2.947,2.947,0,0,1-.368-1.744V67.575q0-1.856.064-3.136v-0.7a0.446,0.446,0,0,0-.16-0.288,0.464,0.464,0,0,0-.32-0.16l-0.1.032-4.832,2.24c-0.064.022-.075,0.091-0.032,0.208a0.213,0.213,0,0,0,.192.176h0.032A3.148,3.148,0,0,1,182,65.591a0.761,0.761,0,0,1,.736.48,3.993,3.993,0,0,1,.224,1.568v5.728a3.067,3.067,0,0,1-.352,1.744,1.607,1.607,0,0,1-1.344.464q-0.1,0-.1.192t0.1,0.192h0ZM198.64,52.727a6.573,6.573,0,0,0-5.5,2.32q-1.824,2.32-1.984,7.536a1.355,1.355,0,0,1-.448,1.1,2.758,2.758,0,0,1-1.536.3q-0.1,0-.1.288t0.1,0.288a3.005,3.005,0,0,1,1.632.3,1.554,1.554,0,0,1,.416,1.3v7.2a5.178,5.178,0,0,1-.144,1.424,0.919,0.919,0,0,1-.544.624,3.524,3.524,0,0,1-1.232.16c-0.085,0-.128.064-0.128,0.192s0.043,0.192.128,0.192q0.928,0,1.44-.032l1.952-.032q1.44,0,2.176.032l2.208,0.032c0.085,0,.128-0.064.128-0.192s-0.043-.192-0.128-0.192a7.852,7.852,0,0,1-1.872-.16,1.094,1.094,0,0,1-.784-0.608,3.932,3.932,0,0,1-.192-1.44V64.759a17.894,17.894,0,0,1,3.424.48c0.064,0.022.133-.069,0.208-0.272a1.782,1.782,0,0,0,.112-0.624,2.032,2.032,0,0,0-.064-0.528,0.259,0.259,0,0,0-.16-0.24q-2.528.257-3.52,0.288V61.911a17.872,17.872,0,0,1,.848-6.4q0.847-2.048,2.32-2.048a1.36,1.36,0,0,1,1.024.336,3.435,3.435,0,0,1,.608,1.008,3.246,3.246,0,0,0,.64,1.024,1.532,1.532,0,0,0,1.12.352,1.717,1.717,0,0,0,1.136-.416,1.42,1.42,0,0,0,.5-1.152,1.53,1.53,0,0,0-.992-1.392,6.344,6.344,0,0,0-2.784-.5h0Zm12.928,21.5a2.186,2.186,0,0,1-.928.224,1.067,1.067,0,0,1-.944-0.512,2.613,2.613,0,0,1-.336-1.44V66.839a3.633,3.633,0,0,0-.88-2.672,3.1,3.1,0,0,0-2.288-.88,8.774,8.774,0,0,0-2.8.544,9.158,9.158,0,0,0-2.7,1.424,2.419,2.419,0,0,0-1.12,1.84,1.136,1.136,0,0,0,.368.88,1.7,1.7,0,0,0,1.168.336,1.872,1.872,0,0,0,1.3-.416,2.062,2.062,0,0,0,.56-1.376q0.224-2.624,1.92-2.624a1.185,1.185,0,0,1,1.136.928,9.509,9.509,0,0,1,.336,2.976v1.824l-2.88,1.056-0.8.288a16.074,16.074,0,0,0-1.744.688,2.948,2.948,0,0,0-1.04.832,2.187,2.187,0,0,0-.416,1.392,2.122,2.122,0,0,0,.7,1.7,3.105,3.105,0,0,0,2.08.608,4.08,4.08,0,0,0,1.44-.24,5.774,5.774,0,0,0,1.376-.784l1.376-.96a3.243,3.243,0,0,0,.656,1.472,1.3,1.3,0,0,0,.976.544,0.714,0.714,0,0,0,.32-0.064l3.3-1.568a0.153,0.153,0,0,0,.08-0.208,0.18,0.18,0,0,0-.176-0.144h-0.032Zm-5.888-.1a1.945,1.945,0,0,1-1.056.352,1.68,1.68,0,0,1-1.136-.432,1.506,1.506,0,0,1-.5-1.2,1.7,1.7,0,0,1,.4-1.12,2.28,2.28,0,0,1,.944-0.688q0.544-.208.64-0.24l1.376-.64v3.072a1.926,1.926,0,0,0,.032.416Zm15.552-10.848a2.87,2.87,0,0,0-1.488.544,13.531,13.531,0,0,0-2.16,1.888,5,5,0,0,0-.368-1.776,0.889,0.889,0,0,0-.656-0.656,1.337,1.337,0,0,0-.224.064l-4.448,2.176c-0.043.022-.048,0.085-0.016,0.192a0.175,0.175,0,0,0,.144.16h0.064a4.115,4.115,0,0,1,1.536-.448,0.794,0.794,0,0,1,.752.464,3.328,3.328,0,0,1,.24,1.456v6.016a3.067,3.067,0,0,1-.352,1.744,1.607,1.607,0,0,1-1.344.464q-0.1,0-.1.192t0.1,0.192q0.831,0,1.312-.032l1.888-.032,2.592,0.032q0.639,0.032,1.76.032c0.085,0,.128-0.064.128-0.192s-0.043-.192-0.128-0.192a3.883,3.883,0,0,1-2.24-.464,2.083,2.083,0,0,1-.608-1.744v-6.88a8.477,8.477,0,0,1,1.136-1.008,1.274,1.274,0,0,1,.688-0.24,0.85,0.85,0,0,1,.5.144,3.122,3.122,0,0,1,.5.464,2.752,2.752,0,0,0,.624.576,1.628,1.628,0,0,0,1.872-.24,1.528,1.528,0,0,0,.416-1.1,1.558,1.558,0,0,0-.688-1.264,2.315,2.315,0,0,0-1.424-.528h0Zm6.88-3.168a1.794,1.794,0,0,0,1.376-.512,2.023,2.023,0,0,0,.48-1.44,1.817,1.817,0,0,0-.48-1.344,1.863,1.863,0,0,0-1.376-.48,2,2,0,0,0-1.424.5,1.736,1.736,0,0,0-.528,1.328,1.78,1.78,0,0,0,1.952,1.952h0Zm-3.072,15.84q0.831,0,1.312-.032l1.888-.032,1.92,0.032q0.48,0.032,1.312.032,0.1,0,.1-0.192t-0.1-.192a1.656,1.656,0,0,1-1.36-.464,2.947,2.947,0,0,1-.368-1.744V67.575q0-1.856.064-3.136v-0.7a0.446,0.446,0,0,0-.16-0.288,0.464,0.464,0,0,0-.32-0.16l-0.1.032-4.832,2.24c-0.064.022-.075,0.091-0.032,0.208a0.213,0.213,0,0,0,.192.176h0.032a3.148,3.148,0,0,1,1.184-.352,0.761,0.761,0,0,1,.736.48,3.993,3.993,0,0,1,.224,1.568v5.728a3.067,3.067,0,0,1-.352,1.744,1.607,1.607,0,0,1-1.344.464q-0.1,0-.1.192t0.1,0.192h0Zm14.751,0.416a7.543,7.543,0,0,0,3.5-.832,6.6,6.6,0,0,0,2.576-2.32,6.148,6.148,0,0,0,.96-3.408,6.981,6.981,0,0,0-.784-3.248,6.231,6.231,0,0,0-2.256-2.448,6.343,6.343,0,0,0-3.456-.928,8.243,8.243,0,0,0-3.36.72,6.518,6.518,0,0,0-2.688,2.176,5.861,5.861,0,0,0-1.056,3.536,7.263,7.263,0,0,0,.8,3.376,6.129,6.129,0,0,0,2.288,2.464,6.509,6.509,0,0,0,3.472.912h0Zm0.96-.672a2.867,2.867,0,0,1-2.048-.912,6.282,6.282,0,0,1-1.472-2.56,12.08,12.08,0,0,1-.544-3.792q0-4.576,2.56-4.576a2.96,2.96,0,0,1,1.984.816,5.726,5.726,0,0,1,1.5,2.416,11.374,11.374,0,0,1,.576,3.84,7.676,7.676,0,0,1-.656,3.536,2.063,2.063,0,0,1-1.9,1.232h0Zm23.008-1.824a3.864,3.864,0,0,1-1.312.352,0.709,0.709,0,0,1-.688-0.448,3.988,3.988,0,0,1-.208-1.536V63.735a0.387,0.387,0,0,0-.176-0.272,0.54,0.54,0,0,0-.336-0.144,0.362,0.362,0,0,0-.16.032L256.591,65.4c-0.064.022-.075,0.091-0.032,0.208a0.208,0.208,0,0,0,.16.176h0.032a2.033,2.033,0,0,1,.832-0.224q0.992,0,.992,2.08v5.472a4.314,4.314,0,0,1-1.3.848,3.636,3.636,0,0,1-1.424.3q-2.656,0-2.656-3.456V63.735a0.387,0.387,0,0,0-.176-0.272,0.54,0.54,0,0,0-.336-0.144l-0.16.032L248.239,65.4c-0.064.022-.075,0.091-0.032,0.208a0.215,0.215,0,0,0,.192.176h0.032a1.831,1.831,0,0,1,.8-0.224q0.992,0,.992,2.08v4.7a4.127,4.127,0,0,0,1.008,2.9,3.561,3.561,0,0,0,2.768,1.1,6.014,6.014,0,0,0,4.576-2.5,6.382,6.382,0,0,0,.272,1.872,0.806,0.806,0,0,0,.56.688,0.362,0.362,0,0,0,.16-0.032l4.416-2.144c0.064-.021.069-0.085,0.016-0.192a0.227,0.227,0,0,0-.176-0.16h-0.064Zm4.032-8.736A1.132,1.132,0,0,1,269.1,63.9a3.125,3.125,0,0,1,1.68.512,4.621,4.621,0,0,1,1.328,1.232,2.351,2.351,0,0,1,.512,1.328q0,0.1.192,0.1t0.192-.1l0.032-1.6q0.032-.448.032-1.248a0.359,0.359,0,0,0-.288-0.352,6.62,6.62,0,0,0-1.328-.384,8.352,8.352,0,0,0-1.328-.1,5.889,5.889,0,0,0-3.3.88,3.07,3.07,0,0,0-1.344,2.768,3.151,3.151,0,0,0,.448,1.728,3.592,3.592,0,0,0,1.024,1.088q0.576,0.384,1.7.992a8.885,8.885,0,0,1,1.984,1.424,2.565,2.565,0,0,1,.672,1.872,1.69,1.69,0,0,1-.4,1.216,1.418,1.418,0,0,1-1.072.416,3.514,3.514,0,0,1-2.4-1.12,6.323,6.323,0,0,1-1.7-2.72,0.207,0.207,0,0,0-.208-0.048c-0.118.011-.176,0.048-0.176,0.112l0.064,3.168a0.553,0.553,0,0,0,.192.384,6.79,6.79,0,0,0,3.328.864,5.353,5.353,0,0,0,2.592-.592,4.033,4.033,0,0,0,1.632-1.552,4.1,4.1,0,0,0,.544-2.048,3.073,3.073,0,0,0-.48-1.744,4.019,4.019,0,0,0-1.072-1.12q-0.592-.4-1.808-1.1a9.243,9.243,0,0,1-1.9-1.408,2.208,2.208,0,0,1-.656-1.6h0Z" transform="translate(-60 -40)"/>
</svg>
