<svg xmlns="http://www.w3.org/2000/svg" width="20" height="20" viewBox="0 0 20 20">
  <defs>
    <style>
      .cls-1 {
        fill: #fff;
        fill-rule: evenodd;
      }
    </style>
  </defs>
  <path id="Icon" class="cls-1" d="M1165.21,9772.23a1.4,1.4,0,0,0-2.12,0c-0.5.49-.99,0.98-1.48,1.48a0.3,0.3,0,0,1-.41.08c-0.32-.18-0.66-0.32-0.97-0.51a15.425,15.425,0,0,1-3.7-3.37,8.858,8.858,0,0,1-1.33-2.13,0.3,0.3,0,0,1,.08-0.39c0.49-.48.97-0.97,1.46-1.46a1.409,1.409,0,0,0,0-2.17c-0.39-.39-0.78-0.77-1.16-1.16-0.4-.4-0.8-0.81-1.2-1.2a1.41,1.41,0,0,0-2.12,0c-0.5.49-.98,1-1.49,1.48a2.4,2.4,0,0,0-.76,1.63,6.982,6.982,0,0,0,.54,2.96,17.853,17.853,0,0,0,3.2,5.33,19.775,19.775,0,0,0,6.56,5.14,9.613,9.613,0,0,0,3.63,1.05,2.659,2.659,0,0,0,2.29-.87c0.42-.47.9-0.9,1.35-1.36a1.415,1.415,0,0,0,.01-2.15C1166.8,9773.81,1166,9773.02,1165.21,9772.23Zm-0.8-3.32,1.54-.26a6.905,6.905,0,0,0-1.92-3.7,6.769,6.769,0,0,0-3.91-1.95l-0.22,1.54A5.323,5.323,0,0,1,1164.41,9768.91Zm2.4-6.67a11.225,11.225,0,0,0-6.49-3.24l-0.22,1.54a9.885,9.885,0,0,1,8.36,8.11l1.54-.27A11.351,11.351,0,0,0,1166.81,9762.24Z" transform="translate(-1150 -9759)"/>
</svg>
